<?xml version="1.0" encoding="UTF-8" standalone="no"?><!-- Generator: Gravit.io --><svg xmlns="http://www.w3.org/2000/svg" xmlns:xlink="http://www.w3.org/1999/xlink" style="isolation:isolate" viewBox="0 0 1080 1080" width="1080pt" height="1080pt"><defs><clipPath id="_clipPath_OYmDSCC7bRbP7MoEpQPcJCG7fsM6twIE"><rect width="1080" height="1080"/></clipPath></defs><g clip-path="url(#_clipPath_OYmDSCC7bRbP7MoEpQPcJCG7fsM6twIE)"><rect width="1080" height="1080" style="fill:rgb(0,0,0)" fill-opacity="0"/><g><g><path d=" M 181.374 214.237 C 185.589 206.822 194.155 202.394 202.077 202.717 L 407.265 202.717 L 298.293 430.202 L 181.721 238.117 C 177.276 230.818 177.137 221.676 181.374 214.237 L 181.374 214.237 Z " fill="rgb(255,145,0)"/><path d=" M 413.759 116.872 C 422.97 107.661 437.894 107.661 447.105 116.872 L 477.595 147.361 L 508.085 116.872 C 517.296 107.661 532.22 107.661 541.431 116.872 C 550.642 126.083 550.642 141.007 541.431 150.218 L 494.268 197.381 C 489.662 201.986 483.628 204.289 477.595 204.289 C 471.561 204.289 465.527 201.986 460.922 197.379 L 413.759 150.216 C 404.547 141.005 404.547 126.083 413.759 116.872 L 413.759 116.872 Z " fill="rgb(250,190,44)"/><path d=" M 413.759 150.216 C 404.548 141.005 404.548 126.081 413.759 116.87 C 422.97 107.66 437.894 107.66 447.105 116.87 L 477.595 147.361 L 477.595 204.289 C 471.561 204.289 465.527 201.986 460.922 197.379 L 413.759 150.216 Z " fill="rgb(255,145,0)"/><path d=" M 477.595 157.126 C 594.627 157.126 689.829 252.328 689.829 369.36 L 689.829 702.646 C 689.829 715.68 679.281 726.227 666.247 726.227 L 477.595 726.227 L 288.942 726.227 C 275.908 726.227 265.361 715.68 265.361 702.646 L 265.361 369.36 C 265.361 252.328 360.562 157.126 477.595 157.126 Z " fill="rgb(254,216,67)"/><path d=" M 265.361 702.646 L 265.361 369.36 C 265.361 252.328 360.562 157.126 477.595 157.126 L 477.595 726.227 L 288.942 726.227 C 275.908 726.227 265.361 715.68 265.361 702.646 Z " fill="rgb(250,190,44)"/><g><circle vector-effect="non-scaling-stroke" cx="430.431432211589" cy="322.1966283586796" r="23.58155476825334" fill="rgb(56,33,26)"/></g></g><linearGradient id="_lgradient_9" x1="0.07403312428093001" y1="0.8467518183283868" x2="0.9900880490977372" y2="0.41983800390107423" gradientTransform="matrix(852,0,0,842.969,114,127.069)" gradientUnits="userSpaceOnUse"><stop offset="0%" stop-opacity="1" style="stop-color:rgb(255,102,0)"/><stop offset="100%" stop-opacity="1" style="stop-color:rgb(255,170,58)"/></linearGradient><path d=" M 832.146 127.069 L 874.54 169.464 C 886.014 180.938 886.014 199.539 874.54 211.013 L 815.747 269.806 C 832.076 298.567 844.716 329.057 853.498 360.894 L 936.62 360.894 C 952.846 360.894 966 374.048 966 390.273 L 966 546.967 C 966 563.192 952.846 576.346 936.62 576.346 L 853.494 576.346 C 844.712 608.183 832.075 638.673 815.743 667.434 L 874.536 726.227 C 886.01 737.701 886.01 756.303 874.536 767.776 L 763.739 878.576 C 752.265 890.05 733.662 890.048 722.19 878.576 L 663.394 819.783 C 634.633 836.112 604.143 848.751 572.307 857.536 L 572.307 940.658 C 572.307 956.883 559.152 970.038 542.927 970.038 L 386.234 970.038 C 370.008 970.038 356.854 956.883 356.854 940.658 L 356.854 857.536 C 325.018 848.751 294.527 836.112 265.766 819.783 L 206.971 878.576 C 195.497 890.048 176.894 890.05 165.422 878.576 L 114 827.153 L 114 827.153 L 217.31 726.441 C 269.574 675.492 329.989 650.741 352.14 671.205 C 352.14 671.205 405.765 693.866 464.582 693.866 C 588.783 693.866 689.829 592.821 689.829 468.62 C 689.829 411.859 668.724 359.934 668.724 359.934 C 649.53 338.051 676.377 278.92 728.641 227.971 L 832.146 127.069 Z " fill="url(#_lgradient_9)"/></g></g></svg>